<svg width="225" height="225" viewBox="0 0 225 225" fill="none" xmlns="http://www.w3.org/2000/svg">
<path fill-rule="evenodd" clip-rule="evenodd" d="M175.506 129.314C193.126 119.234 205 100.254 205 78.5C205 46.1913 178.809 20 146.5 20C124.746 20 105.766 31.8739 95.6858 49.4941C90.105 48.5121 84.3622 48 78.4999 48C77.0271 48 75.5618 48.0323 74.1047 48.0963C85.9855 19.8406 113.926 0 146.5 0C189.854 0 225 35.1456 225 78.5C225 111.074 205.159 139.014 176.904 150.895C176.968 149.438 177 147.973 177 146.5C177 140.638 176.488 134.895 175.506 129.314Z" fill="#C58B4C"/>
<path fill-rule="evenodd" clip-rule="evenodd" d="M135.09 131.616C136.336 136.368 137 141.357 137 146.5C137 178.809 110.809 205 78.5 205C46.1913 205 20 178.809 20 146.5C20 114.191 46.1913 88 78.5 88C83.2294 88 87.8278 88.5612 92.2321 89.6207L108.086 73.7665C98.9554 70.0485 88.9669 68 78.5 68C35.1456 68 0 103.146 0 146.5C0 189.854 35.1456 225 78.5 225C121.854 225 157 189.854 157 146.5C157 135.643 154.796 125.3 150.81 115.895L135.09 131.616Z" fill="#C58B4C"/>
<rect x="63" y="147.853" width="120" height="20" transform="rotate(-45 63 147.853)" fill="#C58B4C"/>
<path d="M176.336 48.4454L164.008 94.4538L130.328 60.7733L176.336 48.4454Z" fill="#C58B4C"/>
</svg>
