{
    "asset" : {
        "generator" : "Khronos glTF Blender I/O v3.3.27",
        "version" : "2.0"
    },
    "scene" : 0,
    "scenes" : [
        {
            "extras" : {
                "uuid" : "355fa80e-700d-441c-b92f-c60ee79e95a1",
                "assets reported" : {}
            },
            "name" : "Scene",
            "nodes" : [
                0
            ]
        }
    ],
    "nodes" : [
        {
            "mesh" : 0,
            "name" : "Plane.005",
            "rotation" : [
                -0.5,
                -0.5,
                -0.5,
                0.5000000596046448
            ]
        }
    ],
    "meshes" : [
        {
            "name" : "Plane.005",
            "primitives" : [
                {
                    "attributes" : {
                        "POSITION" : 0,
                        "NORMAL" : 1,
                        "TANGENT" : 2,
                        "TEXCOORD_0" : 3
                    },
                    "indices" : 4
                }
            ]
        }
    ],
    "accessors" : [
        {
            "bufferView" : 0,
            "componentType" : 5126,
            "count" : 2392,
            "max" : [
                26,
                3.560385493983631e-06,
                50.000003814697266
            ],
            "min" : [
                -42.000003814697266,
                3.560385493983631e-06,
                -7.999996185302734
            ],
            "type" : "VEC3"
        },
        {
            "bufferView" : 1,
            "componentType" : 5126,
            "count" : 2392,
            "type" : "VEC3"
        },
        {
            "bufferView" : 2,
            "componentType" : 5126,
            "count" : 2392,
            "type" : "VEC4"
        },
        {
            "bufferView" : 3,
            "componentType" : 5126,
            "count" : 2392,
            "type" : "VEC2"
        },
        {
            "bufferView" : 4,
            "componentType" : 5123,
            "count" : 3588,
            "type" : "SCALAR"
        }
    ],
    "bufferViews" : [
        {
            "buffer" : 0,
            "byteLength" : 28704,
            "byteOffset" : 0,
            "target" : 34962
        },
        {
            "buffer" : 0,
            "byteLength" : 28704,
            "byteOffset" : 28704,
            "target" : 34962
        },
        {
            "buffer" : 0,
            "byteLength" : 38272,
            "byteOffset" : 57408,
            "target" : 34962
        },
        {
            "buffer" : 0,
            "byteLength" : 19136,
            "byteOffset" : 95680,
            "target" : 34962
        },
        {
            "buffer" : 0,
            "byteLength" : 7176,
            "byteOffset" : 114816,
            "target" : 34963
        }
    ],
    "buffers" : [
        {
            "byteLength" : 121992,
            "uri" : "groud-bbc7706aba74e8b72da8004fa03ce459.bin"
        }
    ]
}
